<?xml version="1.0" standalone="no"?>
<!DOCTYPE svg PUBLIC "-//W3C//DTD SVG 20010904//EN"
 "http://www.w3.org/TR/2001/REC-SVG-20010904/DTD/svg10.dtd">
<svg version="1.0" xmlns="http://www.w3.org/2000/svg"
 width="800.000000pt" height="800.000000pt" viewBox="0 0 800.000000 800.000000"
 preserveAspectRatio="xMidYMid meet">

<g transform="translate(0.000000,800.000000) scale(0.100000,-0.100000)"
fill="#000000" stroke="none">
<path d="M3655 5326 c-11 -8 -20 -23 -20 -33 0 -10 -7 -18 -15 -18 -36 -1 -40
-15 -39 -123 2 -133 8 -166 34 -170 28 -6 46 -22 43 -41 -2 -12 5 -16 27 -16
22 0 29 4 27 16 -3 20 16 36 48 41 22 3 26 9 33 63 9 66 0 222 -13 230 -4 3
-6 13 -3 24 4 14 -2 20 -24 24 -15 3 -39 9 -53 12 -15 4 -33 0 -45 -9z"/>
<path d="M4710 5303 c0 -36 -15 -58 -37 -58 -16 0 -18 -11 -21 -92 l-3 -93 26
0 c21 0 25 -5 25 -29 0 -46 24 -63 79 -56 25 4 51 8 57 10 20 6 31 221 16 300
l-7 40 -68 3 -67 3 0 -28z m-20 -89 c0 -8 -5 -12 -10 -9 -6 4 -8 11 -5 16 9
14 15 11 15 -7z"/>
<path d="M4887 5193 c-11 -10 -8 -61 3 -68 6 -4 10 10 10 34 0 42 -2 46 -13
34z"/>
<path d="M2745 4535 c-3 -8 -7 -22 -10 -30 -2 -8 -16 -15 -30 -15 -26 0 -29
-4 -39 -52 -5 -20 -13 -27 -34 -30 -25 -3 -28 -7 -37 -73 -10 -64 -13 -70 -33
-68 -18 2 -22 -2 -22 -26 l0 -29 90 3 c98 3 100 2 110 -55 4 -26 10 -35 25
-35 19 0 32 -31 39 -96 4 -35 14 -49 35 -49 12 0 21 -10 24 -27 23 -110 22
-108 45 -106 12 2 22 -1 23 -5 1 -9 6 -34 16 -87 7 -32 13 -40 31 -40 23 0 45
-22 36 -37 -10 -16 17 -48 38 -45 18 1 23 -4 28 -28 4 -25 10 -31 38 -33 29
-3 37 -11 33 -35 -3 -21 22 -48 42 -45 17 2 23 -3 27 -27 4 -23 11 -31 30 -33
32 -5 50 -20 44 -36 -6 -16 14 -33 46 -38 19 -2 26 -10 28 -30 3 -21 10 -29
30 -34 41 -8 57 -19 57 -40 0 -16 12 -21 65 -29 59 -10 65 -13 68 -37 3 -24 7
-26 94 -37 50 -7 95 -14 99 -16 4 -3 5 -14 2 -25 -3 -11 -1 -20 4 -20 37 0
279 -23 286 -27 4 -2 3 -11 -3 -18 -18 -21 13 -26 212 -29 211 -3 344 4 340
19 -2 6 -12 9 -23 8 -10 -2 -19 2 -19 7 0 6 3 10 8 10 25 0 231 21 251 25 17
4 22 11 18 25 -3 11 -2 20 1 21 4 0 16 2 27 4 11 2 53 9 93 16 63 11 73 15 69
31 -6 22 6 30 52 38 27 4 37 11 41 30 3 14 14 26 25 28 11 2 29 7 40 12 11 5
29 10 40 12 12 2 19 10 17 20 -3 20 24 42 52 43 15 0 22 8 26 30 4 24 11 31
35 35 23 4 31 11 33 30 5 33 18 48 45 52 15 2 22 10 23 26 1 13 6 28 13 35 6
6 11 21 11 34 0 16 6 23 19 23 24 0 38 18 43 55 2 24 8 30 28 30 22 0 25 6 32
50 15 90 17 95 40 92 20 -2 23 5 33 68 9 62 13 70 35 75 17 4 25 13 26 29 2
29 19 40 64 42 63 3 68 4 75 10 3 4 3 19 -1 33 -5 20 -11 25 -24 21 -14 -5
-19 2 -23 32 -11 82 -22 107 -47 113 -17 4 -24 13 -23 25 1 11 -4 28 -10 40
-7 11 -12 29 -12 40 0 14 -7 20 -23 20 -26 0 -42 20 -42 52 0 26 -7 29 -70 25
l-50 -4 0 -65 c0 -57 2 -64 17 -59 23 9 33 -11 33 -70 0 -97 -10 -143 -34
-146 -18 -3 -22 -13 -31 -73 -9 -65 -12 -70 -35 -70 -21 0 -26 -6 -33 -40 -4
-22 -10 -52 -14 -67 -4 -21 -11 -28 -29 -28 -23 0 -27 -8 -36 -65 -2 -14 -11
-20 -28 -20 -20 0 -25 -6 -26 -28 -1 -16 -6 -33 -13 -40 -6 -6 -11 -21 -11
-33 0 -17 -7 -23 -27 -26 -23 -2 -29 -9 -33 -38 -4 -28 -9 -35 -27 -33 -25 3
-40 -13 -45 -47 -2 -19 -10 -26 -33 -30 -24 -4 -31 -11 -35 -35 -4 -25 -10
-31 -38 -33 -17 -2 -33 -9 -34 -15 0 -7 -1 -19 -2 -27 -1 -8 -12 -17 -26 -18
-14 -2 -29 -8 -34 -13 -6 -5 -22 -9 -37 -9 -23 0 -28 -5 -31 -27 -3 -23 -9
-29 -41 -34 -42 -7 -52 -13 -52 -37 0 -10 -9 -18 -20 -19 -11 -1 -40 -7 -65
-13 -25 -6 -59 -14 -77 -17 -26 -4 -32 -10 -30 -26 2 -19 -5 -23 -58 -29 -70
-9 -458 -8 -530 1 -42 5 -50 10 -55 31 -6 24 -11 25 -95 32 -91 8 -110 16
-110 46 0 16 -24 24 -110 35 -11 1 -22 12 -25 26 -4 19 -16 27 -50 35 -35 9
-45 16 -45 31 0 20 -6 23 -90 43 -23 6 -31 14 -33 35 -3 20 -10 28 -30 33 -48
10 -52 13 -52 39 0 18 -5 25 -19 25 -37 0 -51 12 -51 41 0 25 -4 29 -29 29
-32 0 -43 11 -45 44 -1 14 -9 22 -23 24 -28 4 -40 20 -45 57 -2 22 -9 31 -28
35 -17 4 -26 14 -28 30 -2 14 -8 29 -13 34 -5 6 -9 21 -9 34 0 18 -4 22 -18
18 -20 -7 -39 21 -44 64 -2 19 -8 24 -25 23 -17 -2 -24 4 -29 25 -3 15 -9 36
-12 47 -7 21 -9 31 -11 53 -1 9 -8 11 -21 7 -15 -5 -20 0 -25 22 -3 15 -10 42
-15 59 -6 17 -10 38 -10 47 0 11 -7 16 -22 14 -20 -2 -23 4 -30 53 -5 34 -3
71 4 98 8 32 8 49 -1 68 -6 14 -11 34 -11 44 0 24 -48 28 -55 5z m2865 -145
c0 -5 -4 -10 -10 -10 -5 0 -10 5 -10 10 0 6 5 10 10 10 6 0 10 -4 10 -10z
m-2555 -510 c3 -5 -1 -10 -9 -10 -9 0 -16 5 -16 10 0 6 4 10 9 10 6 0 13 -4
16 -10z m495 -494 c0 -11 -19 -15 -25 -6 -3 5 1 10 9 10 9 0 16 -2 16 -4z"/>
<path d="M2820 3950 c0 -5 5 -10 11 -10 5 0 7 5 4 10 -3 6 -8 10 -11 10 -2 0
-4 -4 -4 -10z"/>
</g>
</svg>
